<?xml version="1.0" standalone="no"?>
<!DOCTYPE svg PUBLIC "-//W3C//DTD SVG 20010904//EN"
 "http://www.w3.org/TR/2001/REC-SVG-20010904/DTD/svg10.dtd">
<svg version="1.0" xmlns="http://www.w3.org/2000/svg"
 width="256.000000pt" height="256.000000pt" viewBox="0 0 256.000000 256.000000"
 preserveAspectRatio="xMidYMid meet">

<g transform="translate(0.000000,256.000000) scale(0.100000,-0.100000)"
fill="#000000" stroke="none">
<path d="M2485 2541 c-16 -10 -97 -53 -180 -95 -82 -43 -181 -95 -220 -116
-77 -41 -254 -134 -414 -217 -76 -39 -145 -87 -261 -183 -87 -72 -160 -130
-163 -130 -3 0 -59 64 -124 142 -65 79 -122 148 -128 154 -5 6 -25 29 -43 52
-19 23 -43 51 -54 64 -11 13 -74 89 -141 171 -67 81 -129 147 -137 147 -12 0
-184 -142 -565 -466 -22 -19 -43 -34 -47 -34 -7 0 -12 -37 -5 -42 1 -1 132 -4
292 -7 l290 -6 3 -371 2 -372 88 -63 c229 -166 497 -372 500 -385 2 -7 -17
-40 -42 -73 -25 -33 -46 -66 -46 -73 0 -8 77 -115 170 -238 94 -124 199 -264
233 -312 46 -64 68 -87 85 -88 12 0 23 1 24 3 1 1 5 279 8 617 l5 615 75 101
c41 56 122 166 179 245 143 196 317 435 355 486 17 23 56 76 86 119 110 154
234 319 242 322 4 2 8 15 8 28 0 29 -30 31 -75 5z m-1897 -312 l-3 -194 -233
-3 c-172 -2 -233 1 -230 9 7 20 453 397 461 389 4 -3 6 -94 5 -201z m1832 205
c0 -3 -26 -41 -58 -83 -32 -42 -87 -116 -122 -166 -35 -49 -67 -92 -70 -95 -4
-3 -38 -50 -78 -105 -39 -55 -119 -165 -177 -245 -58 -80 -145 -200 -193 -267
-48 -67 -93 -122 -99 -123 -10 0 -13 72 -13 329 0 277 2 332 15 344 8 8 56 36
107 63 51 26 107 55 123 64 17 9 111 59 210 110 99 52 216 113 260 137 80 42
95 48 95 37z m-1605 -216 c77 -94 145 -176 151 -182 5 -6 58 -69 117 -141
l108 -130 -38 -35 c-21 -19 -97 -82 -168 -140 -71 -58 -171 -140 -222 -182
-51 -43 -95 -78 -98 -78 -3 0 -5 239 -5 530 0 292 3 530 8 529 4 0 70 -77 147
-171z m735 -604 l0 -344 -420 0 c-231 0 -420 3 -420 6 0 8 0 8 220 189 101 83
278 229 394 326 116 97 214 175 219 172 4 -2 7 -159 7 -349z m-50 -405 c0 -10
-47 -79 -87 -129 -7 -8 -51 -66 -99 -127 -48 -62 -91 -113 -97 -113 -6 0 -33
17 -61 39 -28 21 -138 103 -243 181 -106 79 -193 147 -193 152 0 4 176 8 390
8 280 0 390 -3 390 -11z m50 -574 c0 -278 -4 -505 -8 -505 -4 0 -58 66 -119
148 -62 81 -137 181 -168 222 -32 41 -68 89 -80 106 l-24 31 41 54 c22 30 51
68 64 84 24 31 136 178 227 298 28 37 54 67 59 67 4 0 8 -227 8 -505z"/>
</g>
</svg>
